<?xml version="1.0" standalone="no"?>
<!DOCTYPE svg PUBLIC "-//W3C//DTD SVG 20010904//EN"
 "http://www.w3.org/TR/2001/REC-SVG-20010904/DTD/svg10.dtd">
<svg version="1.0" xmlns="http://www.w3.org/2000/svg"
 width="128.000000pt" height="128.000000pt" viewBox="0 0 128.000000 128.000000"
 preserveAspectRatio="xMidYMid meet">

<g transform="translate(0.000000,128.000000) scale(0.100000,-0.100000)"
fill="#000000" stroke="none">
<path d="M60 650 l0 -470 585 0 585 0 0 470 0 470 -585 0 -585 0 0 -470z
m1110 0 l0 -410 -525 0 -525 0 0 410 0 410 525 0 525 0 0 -410z"/>
<path d="M230 915 c0 -10 11 -15 35 -15 19 0 35 -5 35 -11 0 -5 -16 -31 -35
-56 -50 -66 -47 -73 30 -73 51 0 65 3 65 15 0 11 -11 15 -40 15 l-41 0 41 53
c58 77 55 87 -25 87 -51 0 -65 -3 -65 -15z"/>
<path d="M390 845 l0 -85 65 0 c51 0 65 3 65 15 0 11 -11 15 -40 15 -33 0 -40
3 -40 20 0 16 7 20 35 20 24 0 35 5 35 15 0 10 -10 15 -33 15 -38 0 -48 6 -40
26 3 9 20 14 44 14 28 0 39 4 39 15 0 12 -14 15 -65 15 l-65 0 0 -85z"/>
<path d="M545 845 c0 -81 1 -85 22 -85 19 0 22 6 25 46 l3 46 34 -46 c19 -25
43 -46 53 -46 16 0 18 10 18 85 0 78 -2 85 -20 85 -17 0 -20 -7 -20 -47 l-1
-48 -42 48 c-62 70 -72 65 -72 -38z"/>
<path d="M275 558 c-11 -6 -25 -19 -32 -27 -16 -21 -16 -81 0 -102 27 -36 80
-49 117 -29 32 17 14 36 -30 32 -35 -4 -41 -1 -50 22 -6 17 -6 35 0 52 9 23
15 26 50 22 44 -4 62 15 30 32 -24 13 -60 12 -85 -2z"/>
<path d="M410 480 l0 -90 60 0 c53 0 60 2 60 20 0 17 -7 20 -40 20 l-40 0 0
70 c0 63 -2 70 -20 70 -19 0 -20 -7 -20 -90z"/>
<path d="M586 503 c-48 -97 -52 -113 -27 -113 11 0 22 9 26 20 5 16 15 20 50
20 35 0 45 -4 50 -20 6 -20 45 -29 45 -10 0 24 -81 170 -95 170 -8 0 -30 -30
-49 -67z m74 -35 c0 -4 -11 -8 -25 -8 -28 0 -30 3 -14 32 11 21 12 21 25 3 8
-10 14 -22 14 -27z"/>
<path d="M778 560 c-51 -31 -41 -85 17 -96 40 -7 53 -20 36 -37 -7 -7 -20 -7
-45 0 -28 9 -36 8 -40 -3 -14 -36 106 -42 131 -7 25 34 11 59 -43 78 -21 7
-40 18 -42 24 -6 17 27 25 53 13 19 -9 25 -8 29 5 4 9 4 18 2 20 -10 11 -82
13 -98 3z"/>
<path d="M943 555 c-15 -10 -23 -27 -23 -44 0 -28 7 -34 73 -55 9 -3 17 -10
17 -16 0 -17 -28 -23 -59 -12 -23 8 -31 7 -35 -4 -14 -36 106 -43 131 -7 25
34 11 59 -43 78 -21 7 -40 18 -42 24 -6 17 27 25 53 13 19 -9 25 -8 29 5 8 21
4 24 -41 30 -26 3 -45 -1 -60 -12z"/>
</g>
</svg>
