<?xml version="1.0" standalone="no"?>
<!DOCTYPE svg PUBLIC "-//W3C//DTD SVG 20010904//EN"
 "http://www.w3.org/TR/2001/REC-SVG-20010904/DTD/svg10.dtd">
<svg version="1.0" xmlns="http://www.w3.org/2000/svg"
 width="128.000000pt" height="128.000000pt" viewBox="0 0 128.000000 128.000000"
 preserveAspectRatio="xMidYMid meet">

<g transform="translate(0.000000,128.000000) scale(0.100000,-0.100000)"
fill="#000000" stroke="none">
<path d="M220 915 c0 -23 4 -25 41 -25 l41 0 -41 -49 c-23 -27 -41 -58 -41
-70 0 -19 5 -21 75 -21 73 0 75 1 75 24 0 21 -5 25 -36 28 l-36 3 36 45 c20
25 36 55 36 68 0 21 -4 22 -75 22 -73 0 -75 -1 -75 -25z"/>
</g>
</svg>
